<!-- Refined from the existing lucide-static UI icon set (ISC). -->
<svg xmlns="http://www.w3.org/2000/svg" viewBox="0 0 32 32" fill="none" stroke="#4b583b" stroke-width="2.5" stroke-linecap="round" stroke-linejoin="round"><path d="M9 27c-6-1-4-8 0-11 2-2 3-4 7-4s5 2 7 4c4 3 6 10 0 11-3 1-4-2-7-2s-4 3-7 2Z" fill="#4b583b" stroke="none"/><ellipse cx="5" cy="12" rx="3" ry="4" fill="#4b583b" stroke="none" transform="rotate(-25 5 12)"/><ellipse cx="12" cy="6" rx="3" ry="4" fill="#4b583b" stroke="none"/><ellipse cx="21" cy="6" rx="3" ry="4" fill="#4b583b" stroke="none"/><ellipse cx="28" cy="12" rx="3" ry="4" fill="#4b583b" stroke="none" transform="rotate(25 28 12)"/><path d="M12 19c0-3 4-3 4-1 0-2 4-2 4 1 0 2-4 4-4 4s-4-2-4-4Z" fill="#cc572f" stroke="none"/></svg>
