<!-- Refined from the existing lucide-static UI icon set (ISC). -->
<svg xmlns="http://www.w3.org/2000/svg" viewBox="0 0 32 32" fill="none" stroke="#4b583b" stroke-width="2.5" stroke-linecap="round" stroke-linejoin="round"><circle cx="10" cy="8" r="4" fill="#4b583b" stroke="none"/><circle cx="23" cy="10" r="3.5" fill="#4b583b" stroke="none"/><path d="M2 25v-4a8 8 0 0 1 16 0v4Z" fill="#4b583b" stroke="none"/><path d="M19 15a7 7 0 0 1 11 6v4h-9v-4a11 11 0 0 0-2-6Z" fill="#4b583b" stroke="none"/><path d="M10 24c0-4 6-4 6-1 0-3 6-3 6 1 0 3-6 6-6 6s-6-3-6-6Z" fill="#cc572f" stroke="#fffdf7" stroke-width="1.5"/></svg>
